<svg width="132" height="124" viewBox="0 0 132 124" fill="none" xmlns="http://www.w3.org/2000/svg">
<path d="M127.602 57.8887H102.08C100.847 52.9235 97.4518 48.7747 92.8299 46.5836C88.2065 44.394 82.8448 44.394 78.2225 46.5836C73.599 48.7748 70.2041 52.9235 68.9725 57.8887H4.6014C2.33699 57.8887 0.501404 59.7243 0.501404 61.9887C0.501404 64.2531 2.33703 66.0887 4.6014 66.0887H68.9725C70.2039 71.0524 73.599 75.2028 78.2225 77.3926C82.8444 79.5838 88.2065 79.5838 92.8299 77.3926C97.4518 75.203 100.847 71.0528 102.08 66.0887H127.602C129.866 66.0887 131.702 64.2531 131.702 61.9887C131.702 59.7243 129.866 57.8887 127.602 57.8887Z" fill="#344326"/>
<path d="M127.602 13.4473H66.4688C65.2374 8.48208 61.8422 4.33325 57.2188 2.14224C52.5969 -0.047412 47.2348 -0.047412 42.6113 2.14224C37.9895 4.33341 34.5945 8.48208 33.3613 13.4473H4.6C2.33559 13.4473 0.5 15.2829 0.5 17.5473C0.5 19.8117 2.33563 21.6473 4.6 21.6473H33.3004C34.5318 26.611 37.9285 30.7614 42.5504 32.9512C47.1738 35.1424 52.5344 35.1424 57.1578 32.9512C61.7797 30.7616 65.1762 26.6114 66.4078 21.6473H127.599C129.864 21.6473 131.699 19.8117 131.699 17.5473C131.699 15.2829 129.864 13.4473 127.599 13.4473H127.602Z" fill="#344326"/>
<path d="M127.602 102.334H66.4688C65.2374 97.3688 61.8422 93.2184 57.2188 91.0289C52.5969 88.8378 47.2348 88.8378 42.6113 91.0289C37.9895 93.2186 34.5945 97.3688 33.3613 102.334H4.6C2.33559 102.334 0.5 104.17 0.5 106.434C0.5 108.698 2.33563 110.534 4.6 110.534H33.3004C34.5318 115.498 37.9285 119.648 42.5504 121.838C47.1738 124.029 52.5344 124.029 57.1578 121.838C61.7797 119.648 65.1762 115.498 66.4078 110.534H127.599C129.864 110.534 131.699 108.698 131.699 106.434C131.699 104.17 129.864 102.334 127.599 102.334H127.602Z" fill="#344326"/>
</svg>
